<svg version="1.1" viewBox="0.0 0.0 2916.8818897637793 615.3228346456693" fill="none" stroke="none" stroke-linecap="square" stroke-miterlimit="10" xmlns:xlink="http://www.w3.org/1999/xlink" xmlns="http://www.w3.org/2000/svg"><clipPath id="p.0"><path d="m0 0l2916.8818 0l0 615.3228l-2916.8818 0l0 -615.3228z" clip-rule="nonzero"/></clipPath><g clip-path="url(#p.0)"><path fill="#000000" fill-opacity="0.0" d="m0 0l2916.8818 0l0 615.3228l-2916.8818 0z" fill-rule="evenodd"/><path fill="#000000" fill-opacity="0.0" d="m0 119.10999l0 0c0 -65.78263 53.327362 -119.10999 119.10999 -119.10999l2736.1106 0c31.589844 0 61.885986 12.549052 84.22339 34.88651c22.337646 22.337456 34.88672 52.63355 34.88672 84.22348l0 476.42572c0 65.78259 -53.327393 119.109985 -119.11011 119.109985l-2736.1106 0l0 0c-65.78263 0 -119.10999 -53.327393 -119.10999 -119.109985z" fill-rule="evenodd"/><path fill="#000000" fill-opacity="0.0" d="m154.3307 55.56693l2665.6692 0l0 504.189l-2665.6692 0z" fill-rule="evenodd"/><path fill="#81b29a" d="m358.84634 228.02081l-107.031265 223.64062l-38.875 0l111.14064 -223.64062l-137.89064 0l0 -31.640625l172.65627 0l0 31.640625z" fill-rule="nonzero"/><path fill="#f2cc8f" d="m582.0807 350.09894q0 24.40625 -6.734375 43.65625q-6.734375 19.234375 -19.140625 32.609375q-12.40625 13.375 -30.1875 20.515625q-17.765594 7.125 -40.03122 7.125q-17.375 0 -35.546875 -3.3125q-18.15625 -3.328125 -35.9375 -10.5625l0 -264.45312l33.984375 0l0 75.984375l-1.5625 36.328125q14.65625 -19.734375 31.34375 -27.828125q16.703125 -8.109375 35.84372 -8.109375q16.796875 0 29.484375 7.03125q12.703125 7.03125 21.296875 19.828125q8.59375 12.78125 12.890625 30.859375q4.296875 18.0625 4.296875 40.328125zm-34.765625 1.5625q0 -15.4375 -2.25 -28.328125q-2.234375 -12.890625 -7.125 -22.0625q-4.875 -9.1875 -12.5 -14.359375q-7.609375 -5.171875 -18.15622 -5.171875q-6.453125 0 -13.09375 2.046875q-6.640625 2.046875 -13.765625 6.84375q-7.125 4.78125 -15.046875 12.6875q-7.90625 7.90625 -16.890625 19.625l0 95.125q9.96875 3.90625 20.3125 6.15625q10.359375 2.234375 19.734375 2.234375q11.71875 0 22.359375 -3.703125q10.6405945 -3.71875 18.74997 -12.40625q8.109375 -8.6875 12.890625 -23.046875q4.78125 -14.359375 4.78125 -35.640625zm153.90625 -67.96875l-58.0 0l0 -28.125l92.375 0l0 167.76562l58.40625 0l0 28.328125l-157.23438 0l0 -28.328125l64.453125 0l0 -139.64062zm11.921875 -110.359375q5.65625 0 10.53125 2.0625q4.890625 2.046875 8.5 5.765625q3.625 3.703125 5.671875 8.484375q2.046875 4.78125 2.046875 10.453125q0 5.46875 -2.046875 10.359375q-2.046875 4.875 -5.671875 8.59375q-3.609375 3.703125 -8.5 5.75q-4.875 2.046875 -10.53125 2.046875q-5.671875 0 -10.5625 -2.046875q-4.875 -2.046875 -8.484375 -5.75q-3.609375 -3.71875 -5.671875 -8.59375q-2.046875 -4.890625 -2.046875 -10.359375q0 -5.671875 2.046875 -10.453125q2.0625 -4.78125 5.671875 -8.484375q3.609375 -3.71875 8.484375 -5.765625q4.890625 -2.0625 10.5625 -2.0625zm299.21875 275.59375q-11.53125 2.9375 -23.84375 4.203125q-12.296875 1.265625 -24.984375 1.265625q-36.921875 0 -55.09375 -16.703125q-18.15625 -16.703125 -18.15625 -51.265625l0 -102.34375l-54.875 0l0 -28.515625l54.875 0l0 -53.90625l33.984375 -8.796875l0 62.703125l88.09375 0l0 28.515625l-88.09375 0l0 99.609375q0 21.09375 11.234375 31.546875q11.234375 10.4375 33.109375 10.4375q9.375 0 20.5 -1.453125q11.140625 -1.46875 23.25 -4.59375l0 29.296875z" fill-rule="nonzero"/><path fill="#e07a5f" d="m1141.0651 283.6927l-58.0 0l0 -28.125l92.375 0l0 167.76562l58.40625 0l0 28.328125l-157.23438 0l0 -28.328125l64.453125 0l0 -139.64062zm11.921875 -110.359375q5.65625 0 10.53125 2.0625q4.890625 2.046875 8.5 5.765625q3.625 3.703125 5.671875 8.484375q2.046875 4.78125 2.046875 10.453125q0 5.46875 -2.046875 10.359375q-2.046875 4.875 -5.671875 8.59375q-3.609375 3.703125 -8.5 5.75q-4.875 2.046875 -10.53125 2.046875q-5.671875 0 -10.5625 -2.046875q-4.875 -2.046875 -8.484375 -5.75q-3.609375 -3.71875 -5.671875 -8.59375q-2.046875 -4.890625 -2.046875 -10.359375q0 -5.671875 2.046875 -10.453125q2.0625 -4.78125 5.671875 -8.484375q3.609375 -3.71875 8.484375 -5.765625q4.890625 -2.0625 10.5625 -2.0625zm141.20312 82.234375l30.28125 0l1.359375 31.640625q8.59375 -10.15625 16.59375 -16.890625q8.015625 -6.75 15.734375 -10.84375q7.71875 -4.109375 15.71875 -5.765625q8.015625 -1.65625 16.609375 -1.65625q30.265625 0 45.796875 17.875q15.53125 17.859375 15.53125 53.796875l0 127.9375l-33.984375 0l0 -125.203125q0 -23.046875 -8.59375 -34.078125q-8.59375 -11.03125 -25.59375 -11.03125q-6.25 0 -12.203125 1.859375q-5.953125 1.84375 -12.40625 6.4375q-6.4375 4.59375 -13.96875 12.40625q-7.515625 7.8125 -16.890625 19.53125l0 130.07812l-33.984375 0l0 -196.09375zm352.73438 0l0 192.57812q0 20.515625 -5.859375 36.421875q-5.859375 15.921875 -16.796875 26.859375q-10.9375 10.9375 -26.859375 16.59375q-15.90625 5.671875 -35.828125 5.671875q-14.453125 0 -28.234375 -2.640625q-13.765625 -2.625 -24.890625 -7.3125l0 -32.421875q6.046875 3.125 12.984375 5.65625q6.9375 2.546875 14.25 4.296875q7.328125 1.765625 14.75 2.640625q7.421875 0.875 14.453125 0.875q22.265625 0 34.953125 -14.0625q12.703125 -14.0625 12.703125 -41.40625l0 -165.625l-96.09375 0l0 -28.125l130.46875 0zm-20.5 -82.234375q5.65625 0 10.53125 2.0625q4.890625 2.046875 8.5 5.765625q3.625 3.703125 5.671875 8.59375q2.046875 4.875 2.046875 10.34375q0 5.65625 -2.046875 10.453125q-2.046875 4.78125 -5.671875 8.5q-3.609375 3.703125 -8.5 5.75q-4.875 2.046875 -10.53125 2.046875q-5.671875 0 -10.5625 -2.046875q-4.875 -2.046875 -8.484375 -5.75q-3.609375 -3.71875 -5.671875 -8.5q-2.046875 -4.796875 -2.046875 -10.453125q0 -5.46875 2.046875 -10.34375q2.0625 -4.890625 5.671875 -8.59375q3.609375 -3.71875 8.484375 -5.765625q4.890625 -2.0625 10.5625 -2.0625zm273.23438 169.92188q0 7.234375 -0.203125 12.125q-0.1875 4.875 -0.578125 9.171875l-137.6875 0q0 30.078125 16.796875 46.1875q16.796875 16.109375 48.4375 16.109375q8.59375 0 17.1875 -0.671875q8.59375 -0.6875 16.59375 -1.859375q8.015625 -1.171875 15.328125 -2.640625q7.328125 -1.46875 13.578125 -3.21875l0 27.921875q-13.859375 3.90625 -31.34375 6.34375q-17.484375 2.453125 -36.234375 2.453125q-25.1875 0 -43.359375 -6.828125q-18.15625 -6.84375 -29.78125 -19.828125q-11.625 -13.0 -17.1875 -31.84375q-5.5625 -18.84375 -5.5625 -42.671875q0 -20.703125 5.953125 -39.15625q5.953125 -18.46875 17.375 -32.421875q11.4375 -13.96875 28.03125 -22.171875q16.609375 -8.203125 37.703125 -8.203125q20.5 0 36.3125 6.453125q15.828125 6.4375 26.671875 18.25q10.84375 11.8125 16.40625 28.71875q5.5625 16.890625 5.5625 37.78125zm-35.34375 -4.875q0.578125 -13.09375 -2.546875 -23.921875q-3.125 -10.84375 -9.671875 -18.65625q-6.53125 -7.8125 -16.296875 -12.203125q-9.765625 -4.40625 -22.65625 -4.40625q-11.140625 0 -20.328125 4.296875q-9.171875 4.296875 -15.8125 12.109375q-6.640625 7.8125 -10.75 18.75q-4.09375 10.9375 -5.0625 24.03125l103.125 0zm241.9845 106.046875q-13.28125 5.078125 -27.25 7.515625q-13.953125 2.453125 -28.796875 2.453125q-46.484497 0 -71.59387 -25.1875q-25.09375 -25.203125 -25.09375 -73.640625q0 -23.25 7.21875 -42.1875q7.234375 -18.953125 20.3125 -32.421875q13.09375 -13.484375 31.25 -20.796875q18.171875 -7.328125 40.046997 -7.328125q15.234375 0 28.515625 2.15625q13.28125 2.140625 25.390625 7.015625l0 32.421875q-12.6875 -6.640625 -25.875 -9.65625q-13.1875 -3.03125 -27.25 -3.03125q-13.078247 0 -24.703247 4.984375q-11.625 4.96875 -20.421875 14.34375q-8.78125 9.375 -13.859375 22.859375q-5.078125 13.46875 -5.078125 30.46875q0 35.546875 17.28125 53.21875q17.296875 17.671875 47.953247 17.671875q13.875 0 26.859375 -3.125q12.984375 -3.125 25.09375 -9.375l0 31.640625zm225.59375 4.5q-11.53125 2.9375 -23.84375 4.203125q-12.296875 1.265625 -24.984375 1.265625q-36.921875 0 -55.09375 -16.703125q-18.15625 -16.703125 -18.15625 -51.265625l0 -102.34375l-54.875 0l0 -28.515625l54.875 0l0 -53.90625l33.984375 -8.796875l0 62.703125l88.09375 0l0 28.515625l-88.09375 0l0 99.609375q0 21.09375 11.234375 31.546875q11.234375 10.4375 33.109375 10.4375q9.375 0 20.5 -1.453125q11.140625 -1.46875 23.25 -4.59375l0 29.296875zm232.60938 -96.875q0 22.84375 -6.453125 41.890625q-6.4375 19.046875 -18.546875 32.625q-12.109375 13.5625 -29.5 21.09375q-17.375 7.515625 -39.4375 7.515625q-21.09375 0 -37.796875 -6.546875q-16.703125 -6.546875 -28.328125 -19.234375q-11.609375 -12.703125 -17.765625 -31.453125q-6.15625 -18.75 -6.15625 -43.15625q0 -22.859375 6.4375 -41.703125q6.453125 -18.84375 18.5625 -32.421875q12.109375 -13.578125 29.484375 -21.09375q17.390625 -7.515625 39.46875 -7.515625q21.09375 0 37.78125 6.546875q16.703125 6.53125 28.328125 19.140625q11.625 12.59375 17.765625 31.34375q6.15625 18.75 6.15625 42.96875zm-34.765625 1.5625q0 -18.171875 -4.0 -31.734375q-4.0 -13.578125 -11.421875 -22.65625q-7.421875 -9.09375 -18.078125 -13.671875q-10.640625 -4.59375 -23.71875 -4.59375q-15.234375 0 -26.078125 5.953125q-10.84375 5.953125 -17.78125 15.921875q-6.921875 9.953125 -10.15625 23.140625q-3.21875 13.1875 -3.21875 27.640625q0 18.15625 4.0 31.828125q4.015625 13.671875 11.4375 22.765625q7.421875 9.078125 17.96875 13.671875q10.546875 4.578125 23.828125 4.578125q15.234375 0 26.0625 -5.953125q10.84375 -5.953125 17.78125 -15.90625q6.9375 -9.96875 10.15625 -23.15625q3.21875 -13.1875 3.21875 -27.828125zm92.0 -98.046875l31.046875 0l0.984375 36.125q17.375 -20.890625 34.265625 -30.265625q16.90625 -9.375 34.09375 -9.375q30.46875 0 46.1875 19.734375q15.71875 19.71875 14.546875 58.578125l-34.375 0q0.59375 -25.78125 -7.515625 -37.390625q-8.109375 -11.625 -23.734375 -11.625q-6.828125 0 -13.765625 2.4375q-6.9375 2.4375 -14.265625 7.8125q-7.3125 5.375 -15.515625 13.78125q-8.203125 8.390625 -17.578125 20.296875l0 125.984375l-34.375 0l0 -196.09375z" fill-rule="nonzero"/></g></svg>