<svg version="1.1" viewBox="0.0 0.0 1561.5853018372704 610.1286089238845" fill="none" stroke="none" stroke-linecap="square" stroke-miterlimit="10" xmlns:xlink="http://www.w3.org/1999/xlink" xmlns="http://www.w3.org/2000/svg"><clipPath id="p.0"><path d="m0 0l1561.5853 0l0 610.1286l-1561.5853 0l0 -610.1286z" clip-rule="nonzero"/></clipPath><g clip-path="url(#p.0)"><path fill="#000000" fill-opacity="0.0" d="m0 0l1561.5853 0l0 610.1286l-1561.5853 0z" fill-rule="evenodd"/><path fill="#000000" fill-opacity="0.0" d="m0 101.69232l0 0c0 -56.163116 45.529205 -101.69232 101.69232 -101.69232l1358.1902 0c26.970459 0 52.836304 10.713982 71.90735 29.784992c19.071045 19.07101 29.785034 44.936848 29.785034 71.90733l0 406.75708c0 56.163147 -45.529175 101.69232 -101.69238 101.69232l-1358.1902 0l0 0c-56.163116 0 -101.69232 -45.529175 -101.69232 -101.69232z" fill-rule="evenodd"/><path fill="#000000" fill-opacity="0.0" d="m110.65092 52.97634l1340.2834 0l0 504.189l-1340.2834 0z" fill-rule="evenodd"/><path fill="#000000" fill-opacity="0.0" d="m119.65092 152.00055l219.92188 0l0 468.3593l-219.92188 0l0 -468.3593z" fill-rule="nonzero"/><path fill="#81b29a" d="m315.16653 225.43024l-107.031235 223.64062l-38.875 0l111.14061 -223.64062l-137.89061 0l0 -31.640625l172.65623 0l0 31.640625z" fill-rule="nonzero"/><path fill="#010000" fill-opacity="0.0" d="m339.57278 152.00055l659.7656 0l0 468.3593l-659.7656 0l0 -468.3593z" fill-rule="nonzero"/><path fill="#f2cc8f" d="m538.40094 347.50836q0 24.40625 -6.734375 43.65625q-6.734375 19.234375 -19.140625 32.609375q-12.4062805 13.375 -30.18753 20.515625q-17.765625 7.125 -40.03125 7.125q-17.375 0 -35.546875 -3.3125q-18.15625 -3.328125 -35.9375 -10.5625l0 -264.45312l33.984375 0l0 75.984375l-1.5625 36.328125q14.65625 -19.734375 31.34375 -27.828125q16.703125 -8.109375 35.84375 -8.109375q16.796875 0 29.484375 7.03125q12.7031555 7.03125 21.296906 19.828125q8.59375 12.78125 12.890625 30.859375q4.296875 18.0625 4.296875 40.328125zm-34.765656 1.5625q0 -15.4375 -2.25 -28.328125q-2.234375 -12.890625 -7.125 -22.0625q-4.875 -9.1875 -12.5 -14.359375q-7.609375 -5.171875 -18.15625 -5.171875q-6.453125 0 -13.09375 2.046875q-6.640625 2.046875 -13.765625 6.84375q-7.125 4.78125 -15.046875 12.6875q-7.90625 7.90625 -16.890625 19.625l0 95.125q9.96875 3.90625 20.3125 6.15625q10.359375 2.234375 19.734375 2.234375q11.71875 0 22.359375 -3.703125q10.640625 -3.71875 18.75 -12.40625q8.109375 -8.6875 12.890625 -23.046875q4.78125 -14.359375 4.78125 -35.640625zm153.90628 -67.96875l-58.0 0l0 -28.125l92.375 0l0 167.76562l58.40625 0l0 28.328125l-157.23438 0l0 -28.328125l64.453125 0l0 -139.64062zm11.921875 -110.359375q5.65625 0 10.53125 2.0625q4.890625 2.046875 8.5 5.765625q3.625 3.703125 5.671875 8.484375q2.046875 4.78125 2.046875 10.453125q0 5.46875 -2.046875 10.359375q-2.046875 4.875 -5.671875 8.59375q-3.609375 3.703125 -8.5 5.75q-4.875 2.046875 -10.53125 2.046875q-5.671875 0 -10.5625 -2.046875q-4.875 -2.046875 -8.484375 -5.75q-3.609375 -3.71875 -5.671875 -8.59375q-2.046875 -4.890625 -2.046875 -10.359375q0 -5.671875 2.046875 -10.453125q2.0625 -4.78125 5.671875 -8.484375q3.609375 -3.71875 8.484375 -5.765625q4.890625 -2.0625 10.5625 -2.0625zm299.21875 275.59375q-11.53125 2.9375 -23.84375 4.203125q-12.296875 1.265625 -24.984375 1.265625q-36.921875 0 -55.09375 -16.703125q-18.15625 -16.703125 -18.15625 -51.265625l0 -102.34375l-54.875 0l0 -28.515625l54.875 0l0 -53.90625l33.984375 -8.796875l0 62.703125l88.09375 0l0 28.515625l-88.09375 0l0 99.609375q0 21.09375 11.234375 31.546875q11.234375 10.4375 33.109375 10.4375q9.375 0 20.5 -1.453125q11.140625 -1.46875 23.25 -4.59375l0 29.296875z" fill-rule="nonzero"/><path fill="#000000" fill-opacity="0.0" d="m999.33844 152.00055l439.8437 0l0 468.3593l-439.8437 0l0 -468.3593z" fill-rule="nonzero"/><path fill="#e07a5f" d="m1205.0103 318.6021q0 18.359375 -2.84375 35.15625q-2.828125 16.796875 -9.078125 31.25q-6.25 14.453125 -16.21875 26.265625q-9.953125 11.8125 -24.40625 20.21875q-14.453125 8.390625 -33.59375 12.984375q-19.140625 4.59375 -43.546875 4.59375l-54.68744 0l0 -255.28125l65.81244 0q59.765625 0 89.15625 30.765625q29.40625 30.765625 29.40625 94.046875zm-36.53125 2.53125q0 -27.140625 -5.078125 -45.890625q-5.078125 -18.75 -15.4375 -30.265625q-10.34375 -11.53125 -25.96875 -16.703125q-15.625 -5.1875 -36.71875 -5.1875l-29.875 0l0 195.90625l25.96875 0q87.109375 0 87.109375 -97.859375zm143.17188 -98.046875l-58.796875 0l0 -29.296875l152.73438 0l0 29.296875l-58.78125 0l0 196.29688l58.78125 0l0 29.6875l-152.73438 0l0 -29.6875l58.796875 0l0 -196.29688z" fill-rule="nonzero"/><path fill="#010000" fill-opacity="0.0" d="m1439.1821 152.00055l0 0l0 468.3593l0 0l0 -468.3593z" fill-rule="nonzero"/><path fill="#81b29a" d="m119.65092 475.07086l219.92188 0l0 36.0l-219.92188 0l0 -36.0z" fill-rule="nonzero"/><path fill="#f2cc8f" d="m339.57278 475.07086l659.7656 0l0 36.0l-659.7656 0l0 -36.0z" fill-rule="nonzero"/><path fill="#e07a5f" d="m999.33844 475.07086l439.8437 0l0 36.0l-439.8437 0l0 -36.0z" fill-rule="nonzero"/></g></svg>